<svg viewBox="0 0 64 64" xmlns="http://www.w3.org/2000/svg">
  <defs>
    <linearGradient id="autoGrad" x1="0%" y1="0%" x2="100%" y2="100%">
      <stop offset="0%" style="stop-color:#3B82F6;stop-opacity:1" />
      <stop offset="100%" style="stop-color:#1E90FF;stop-opacity:1" />
    </linearGradient>
  </defs>
  <circle cx="32" cy="32" r="28" fill="url(#autoGrad)" opacity="0.15"/>
  <path d="M 16 32 Q 16 24 24 20 L 40 20 Q 48 24 48 32 M 20 32 L 44 32 M 22 40 L 22 44 Q 22 46 24 46 L 26 46 Q 28 46 28 44 L 28 40 M 36 40 L 36 44 Q 36 46 38 46 L 40 46 Q 42 46 42 44 L 42 40"
        stroke="#3B82F6" stroke-width="2.5" fill="none" stroke-linecap="round" stroke-linejoin="round"/>
  <circle cx="24" cy="42" r="3" fill="#3B82F6"/>
  <circle cx="40" cy="42" r="3" fill="#3B82F6"/>
</svg>